<svg width="24" height="24" viewBox="0 0 24 24" fill="none" xmlns="http://www.w3.org/2000/svg">
<path fill-rule="evenodd" clip-rule="evenodd" d="M12 24C18.6274 24 24 18.6274 24 12C24 5.37258 18.6274 0 12 0C5.37258 0 0 5.37258 0 12C0 18.6274 5.37258 24 12 24ZM11.318 16.0122L17.6485 9.6854C18.1172 9.21641 18.1172 8.45655 17.6483 7.98783C17.1795 7.51938 16.419 7.51903 15.95 7.98783L10.469 13.466L8.04998 11.0481C7.58114 10.5795 6.82077 10.5795 6.35172 11.0483C5.88276 11.517 5.88276 12.2772 6.35172 12.7458L9.61957 16.0122C10.0888 16.4808 10.8492 16.4808 11.318 16.0122Z" fill="#45CA72"/>
</svg>
